<?xml version="1.0" encoding="utf-8"?>
<!-- Generator: Adobe Illustrator 21.1.0, SVG Export Plug-In . SVG Version: 6.00 Build 0)  -->
<svg version="1.1" id="Black_Boxed" xmlns="http://www.w3.org/2000/svg" xmlns:xlink="http://www.w3.org/1999/xlink" x="0px"
	 y="0px" viewBox="0 0 233.5 44" style="enable-background:new 0 0 233.5 44;" xml:space="preserve">
<style type="text/css">
	.st0{display:none;}
	.st1{display:inline;}
	.st2{enable-background:new    ;}
	.st3{fill:#231F20;}
	.st4{display:inline;fill:none;}
	.st5{display:inline;fill:none;stroke:#231F20;stroke-width:10;stroke-miterlimit:10;}
	.st6{fill:#107BB6;}
	.st7{fill:#FFFFFF;}
</style>
<g id="labels_1_" class="st0">
</g>
<g>
	<g>
		<rect class="st6" width="92" height="44"/>
		<g>
			<path class="st7" d="M14.7,26.2c-0.1-0.7-0.1-1.7-0.1-2.2l1-12h3.8l-1.1,12.1c-0.2,2.6,0.8,4.5,3.3,4.5c2.6,0,4-1.9,4.2-4.2
				L27.1,12H31l-1.1,12.2c-0.4,4.7-3.5,8.2-8.4,8.2C17.7,32.5,15.2,29.9,14.7,26.2"/>
			<path class="st7" d="M31.9,22.2c0.5-5.8,4.3-10.5,10.9-10.5c1.7,0,3.4,0.4,5.1,1.5l-0.4,4.8c-1.5-2-3.3-2.4-5-2.4
				c-4.1,0-6.3,2.9-6.7,6.6c-0.3,3.6,1.5,6.5,5.5,6.5c1.7,0,3.6-0.5,5.5-2.5L46.3,31c-1.9,1-3.6,1.5-5.4,1.5
				C34.4,32.5,31.4,27.6,31.9,22.2"/>
			<path class="st7" d="M50.9,12h3.8l-1.4,16.3h5.5c0.4,0,1.7,0,2,0c0,0.2-0.3,3.8-0.3,3.8H49.2L50.9,12z"/>
			<path class="st7" d="M70.9,19.5c0.1-0.3,0.2-0.6,0.3-0.8h0.1c0,0.2,0.1,0.5,0.2,0.9c0.2,0.9,1.7,6,1.7,6h-4.8
				C68.3,25.5,70.9,19.6,70.9,19.5 M71.9,11.1h-0.3L61.1,32h4.1l1.5-3.2h7.4L75,32h4.1L71.9,11.1z"/>
		</g>
	</g>
	<g>
		<g>
			<path class="st3" d="M106.3,5.4h3.6l6.1,17.3h-3.7l-1.2-3.7h-6.3l-1.1,3.7h-3.6L106.3,5.4z M105.8,16.4h4.6l-1.6-5
				c-0.3-0.9-0.7-2.7-0.7-2.7H108c0,0-0.4,1.8-0.7,2.7L105.8,16.4z"/>
			<path class="st3" d="M120.3,12L120.3,12c0.9-1.3,2.1-2,3.8-2c2.6,0,4.3,1.9,4.3,4.7v8.1H125v-7.6c0-1.3-0.8-2.3-2.2-2.3
				c-1.4,0-2.5,1.2-2.5,2.9v7.1h-3.3V10.3h3.2L120.3,12L120.3,12z"/>
			<path class="st3" d="M129.8,16.5c0-3.9,2.2-6.6,5.3-6.6c1.8,0,2.8,0.8,3.5,1.8h0.1V5.4h3.3v17.3h-3.2v-1.6h-0.1
				c-0.7,1.2-2,2-3.7,2C131.9,23.1,129.8,20.6,129.8,16.5z M138.7,16.6c0-2.4-0.8-4-2.9-4c-1.8,0-2.7,1.6-2.7,3.9
				c0,2.4,0.9,3.8,2.6,3.8C137.7,20.3,138.7,18.9,138.7,16.6z"/>
			<path class="st3" d="M143.4,16.5c0-3.7,2.5-6.6,6.1-6.6c4,0,6.1,3.1,6.1,7.5h-9c0.2,1.9,1.3,3.1,3.2,3.1c1.3,0,2-0.6,2.4-1.5h3.2
				c-0.5,2.2-2.4,4.1-5.6,4.1C145.8,23.1,143.4,20.2,143.4,16.5z M146.8,15.2h5.5c-0.1-1.6-1.1-2.7-2.6-2.7
				C147.9,12.5,147,13.6,146.8,15.2z"/>
			<path class="st3" d="M160.4,12.3L160.4,12.3c0.8-1.4,1.7-2.1,3.1-2.1c0.4,0,0.6,0,0.8,0.1v2.9h-0.1c-2.2-0.2-3.7,0.9-3.7,3.5v6.1
				h-3.3V10.3h3.2L160.4,12.3L160.4,12.3z"/>
			<path class="st3" d="M164.8,18.7h3.1c0.2,1.4,1.2,2.1,2.7,2.1c1.4,0,2.3-0.6,2.3-1.4c0-1.2-1.6-1.3-3.3-1.6
				c-2.2-0.4-4.4-1-4.4-3.8c0-2.7,2.2-4,5.1-4c3.3,0,5.1,1.6,5.3,4.1h-3c-0.1-1.3-1-1.8-2.4-1.8c-1.3,0-2.1,0.5-2.1,1.4
				c0,1.1,1.6,1.2,3.4,1.5c2.1,0.4,4.4,1,4.4,3.9c0,2.5-2.1,4-5.2,4C167,23.1,165,21.4,164.8,18.7z"/>
			<path class="st3" d="M176.6,16.5c0-3.7,2.6-6.6,6.5-6.6s6.5,2.9,6.5,6.6s-2.6,6.6-6.5,6.6S176.6,20.2,176.6,16.5z M186.3,16.5
				c0-2.4-1.1-4.1-3.1-4.1c-2,0-3.1,1.6-3.1,4.1s1.1,4,3.1,4C185.1,20.6,186.3,19,186.3,16.5z"/>
			<path class="st3" d="M194.3,12L194.3,12c0.9-1.3,2.1-2,3.8-2c2.6,0,4.3,1.9,4.3,4.7v8.1h-3.3v-7.6c0-1.3-0.8-2.3-2.2-2.3
				c-1.4,0-2.5,1.2-2.5,2.9v7.1h-3.3V10.3h3.2L194.3,12L194.3,12z"/>
		</g>
	</g>
	<g>
		<g>
			<path class="st3" d="M100.5,34.5h1.2c0.2,1.6,1.2,2.5,3,2.5c1.3,0,2.3-0.6,2.3-1.8c0-1.3-1.2-1.6-2.9-2c-1.7-0.4-3.2-0.9-3.2-2.7
				c0-1.6,1.3-2.5,3.3-2.5c2.4,0,3.4,1.2,3.7,3h-1.2c-0.2-1.4-1.1-2.1-2.5-2.1c-1.3,0-2.2,0.5-2.2,1.5c0,1.1,1.1,1.4,2.5,1.7
				c1.9,0.4,3.6,0.8,3.6,3c0,1.8-1.5,2.8-3.6,2.8C101.9,38,100.6,36.5,100.5,34.5z"/>
			<path class="st3" d="M109,34.3c0-2,1.3-3.7,3.4-3.7c1.7,0,2.7,1,3,2.4h-1.1c-0.2-1-0.8-1.5-1.9-1.5c-1.5,0-2.2,1.2-2.2,2.8
				c0,1.5,0.8,2.8,2.2,2.8c1.1,0,1.8-0.7,1.9-1.7h1.1c-0.2,1.7-1.2,2.7-3,2.7C110.3,38,109,36.3,109,34.3z"/>
			<path class="st3" d="M117.5,31.7L117.5,31.7c0.5-0.7,1.2-1.1,2.2-1.1c1.5,0,2.3,0.8,2.3,2.2v4.9H121V33c0-0.9-0.6-1.4-1.6-1.4
				c-1.1,0-1.9,0.8-1.9,1.9v4.3h-1.1v-9.7h1.1V31.7z"/>
			<path class="st3" d="M123.1,34.3c0-2,1.3-3.7,3.4-3.7c2.1,0,3.4,1.6,3.4,3.7c0,2-1.3,3.7-3.4,3.7C124.4,38,123.1,36.3,123.1,34.3
				z M128.7,34.3c0-1.5-0.8-2.8-2.2-2.8s-2.2,1.2-2.2,2.8s0.8,2.8,2.2,2.8S128.7,35.8,128.7,34.3z"/>
			<path class="st3" d="M130.6,34.3c0-2,1.3-3.7,3.4-3.7c2.1,0,3.4,1.6,3.4,3.7c0,2-1.3,3.7-3.4,3.7C131.8,38,130.6,36.3,130.6,34.3
				z M136.2,34.3c0-1.5-0.8-2.8-2.2-2.8s-2.2,1.2-2.2,2.8s0.8,2.8,2.2,2.8S136.2,35.8,136.2,34.3z"/>
			<path class="st3" d="M138.4,28.1h1.1v9.7h-1.1V28.1z"/>
			<path class="st3" d="M142.8,34.3c0-2,1.3-3.7,3.4-3.7c2.1,0,3.4,1.6,3.4,3.7c0,2-1.3,3.7-3.4,3.7C144.1,38,142.8,36.3,142.8,34.3
				z M148.4,34.3c0-1.5-0.8-2.8-2.2-2.8s-2.2,1.2-2.2,2.8s0.8,2.8,2.2,2.8S148.4,35.8,148.4,34.3z"/>
			<path class="st3" d="M149.9,30.8h1v-1.1c0-1.2,0.7-1.6,1.9-1.6c0.2,0,0.4,0,0.6,0V29c-0.2,0-0.2,0-0.4,0c-0.7,0-1,0.2-1,0.7v1.1
				h1.3v0.9h-1.3v6.1h-1.1v-6.1h-1V30.8z"/>
			<path class="st3" d="M156.6,28.1h1.6l3.1,8h0l3.1-8h1.6v9.7h-1.2v-7.9h0c0,0-0.3,0.8-0.4,1.2l-2.6,6.7h-0.9l-2.6-6.7
				c-0.2-0.5-0.4-1.2-0.4-1.2h0v7.9h-1.1L156.6,28.1L156.6,28.1z"/>
			<path class="st3" d="M172,36.8L172,36.8c-0.4,0.5-1.1,1.1-2.3,1.1c-1.3,0-2.4-0.6-2.4-1.9c0-1.7,1.3-2,3-2.2c1-0.2,1.7-0.2,1.7-1
				c0-0.8-0.6-1.2-1.6-1.2c-1.1,0-1.7,0.5-1.7,1.5h-1.1c0-1.4,0.9-2.4,2.8-2.4c1.5,0,2.6,0.5,2.6,2.2v3.3c0,0.6,0.1,0.9,0.7,0.7h0
				v0.8c-0.1,0-0.3,0.1-0.6,0.1C172.5,37.8,172.1,37.5,172,36.8z M172,35.2V34c-0.4,0.2-1,0.4-1.6,0.5c-1.1,0.2-2,0.4-2,1.4
				c0,0.9,0.7,1.1,1.4,1.1C171.4,37.1,172,36,172,35.2z"/>
			<path class="st3" d="M175.7,31.7L175.7,31.7c0.5-0.7,1.2-1.1,2.2-1.1c1.5,0,2.4,0.8,2.4,2.2v4.9h-1.1V33c0-0.9-0.6-1.4-1.6-1.4
				c-1.1,0-1.9,0.8-1.9,1.9v4.3h-1.1v-7h1.1L175.7,31.7L175.7,31.7z"/>
			<path class="st3" d="M186,36.8L186,36.8c-0.4,0.5-1.1,1.1-2.3,1.1c-1.3,0-2.4-0.6-2.4-1.9c0-1.7,1.3-2,3-2.2c1-0.2,1.7-0.2,1.7-1
				c0-0.8-0.6-1.2-1.6-1.2c-1.1,0-1.7,0.5-1.7,1.5h-1.1c0-1.4,0.9-2.4,2.8-2.4c1.5,0,2.6,0.5,2.6,2.2v3.3c0,0.6,0.1,0.9,0.7,0.7h0
				v0.8c-0.1,0-0.3,0.1-0.6,0.1C186.4,37.8,186.1,37.5,186,36.8z M186,35.2V34c-0.4,0.2-1,0.4-1.6,0.5c-1.1,0.2-2,0.4-2,1.4
				c0,0.9,0.7,1.1,1.4,1.1C185.3,37.1,186,36,186,35.2z"/>
			<path class="st3" d="M188.3,38.2h1c0.1,0.8,0.8,1.1,1.9,1.1c1.3,0,2-0.6,2-1.8v-1h0c-0.5,0.7-1.1,1.1-2.1,1.1
				c-1.8,0-3.1-1.5-3.1-3.5c0-2.2,1.4-3.4,3-3.4c1,0,1.7,0.4,2.1,1h0v-0.9h1.1v6.6c0,1.8-1.2,2.7-3.1,2.7
				C189.4,40.1,188.4,39.4,188.3,38.2z M193.3,34c0-1.5-0.6-2.5-2.1-2.5c-1.3,0-2,1-2,2.5c0,1.5,0.7,2.5,2,2.5
				C192.8,36.6,193.3,35.5,193.3,34z"/>
			<path class="st3" d="M195.4,34.3c0-2,1.3-3.7,3.3-3.7c2.1,0,3.2,1.6,3.2,3.9h-5.4c0.1,1.4,0.9,2.5,2.3,2.5c1,0,1.7-0.5,1.9-1.4
				h1.1c-0.3,1.5-1.4,2.3-3,2.3C196.6,38,195.4,36.3,195.4,34.3z M196.5,33.7h4.2c-0.1-1.4-0.8-2.2-2-2.2
				C197.4,31.5,196.7,32.5,196.5,33.7z"/>
			<path class="st3" d="M202.9,30.8h1.1v1h0c0.4-0.7,1.2-1.2,2.1-1.2c0.9,0,1.5,0.4,1.8,1.2h0c0.4-0.8,1.3-1.2,2.1-1.2
				c1.2,0,2.1,0.8,2.1,2.2v4.9h-1.1v-4.8c0-0.9-0.6-1.4-1.3-1.4c-0.9,0-1.7,0.8-1.7,1.9v4.3H207v-4.8c0-0.9-0.5-1.4-1.2-1.4
				c-0.9,0-1.8,0.8-1.8,1.9v4.3H203L202.9,30.8L202.9,30.8z"/>
			<path class="st3" d="M213.3,34.3c0-2,1.3-3.7,3.3-3.7c2.1,0,3.2,1.6,3.2,3.9h-5.4c0.1,1.4,0.9,2.5,2.3,2.5c1,0,1.7-0.5,1.9-1.4
				h1.1c-0.3,1.5-1.4,2.3-3,2.3C214.5,38,213.3,36.3,213.3,34.3z M214.4,33.7h4.2c-0.1-1.4-0.8-2.2-2-2.2
				C215.3,31.5,214.6,32.5,214.4,33.7z"/>
			<path class="st3" d="M221.9,31.7L221.9,31.7c0.5-0.7,1.2-1.1,2.2-1.1c1.5,0,2.4,0.8,2.4,2.2v4.9h-1.1V33c0-0.9-0.6-1.4-1.6-1.4
				c-1.1,0-1.9,0.8-1.9,1.9v4.3h-1.1v-7h1.1L221.9,31.7L221.9,31.7z"/>
			<path class="st3" d="M227.2,30.8h1v-2.2h1.1v2.2h1.4v0.9h-1.4v4.5c0,0.5,0.3,0.7,0.7,0.7c0.2,0,0.5,0,0.6-0.1h0v1
				c-0.3,0-0.6,0.1-0.9,0.1c-0.9,0-1.5-0.4-1.5-1.3v-4.8h-1L227.2,30.8L227.2,30.8z"/>
		</g>
	</g>
</g>
</svg>
